
<svg xmlns="http://www.w3.org/2000/svg" width="220" height="220" viewBox="0 0 220 220">
  <g transform="translate(-55 -59)">
    <path d="m163.7 223.4-6-1.4a78 78 0 0 1-13-5 81 81 0 0 1-14.3-9.1 66.4 66.4 0 0 0-19.3-11 73 73 0 0 0-11.3-2.5 72 72 0 0 0-16.4.2l2.7-1.2a65 65 0 0 1 10.9-2.9 52 52 0 0 1 21.7 1.5 53 53 0 0 1 11.5 6.1l6.7 5.7a186 186 0 0 0 14.7 12 94 94 0 0 0 15.5 8.2zm72.8-45a44 44 0 0 0-25 4c-2 1-7.2 4.2-11.6 7.2l-10 6.6a102 102 0 0 1-14.1 6.4 67 67 0 0 1-14.4 3 84.6 84.6 0 0 0 15.6 7.7 79 79 0 0 0 24.1 4.1 67 67 0 0 0 30.2-6.6l2.4-1a108 108 0 0 1-7.8 5.5 94 94 0 0 1-14.6 6.3l-5.7 1.3q-2.6.6-9.5.7c-3.7 0-7.9 0-9.2-.2l-5.2-.8a90 90 0 0 1-16.5-5.3 100 100 0 0 1-15.2-9 164 164 0 0 1-10.7-9.1l-3-2.8 1.3.4a92 92 0 0 0 9.8 1.4c2.5.2 4.8.1 8.2-.3a89 89 0 0 0 15.9-3.8 110 110 0 0 0 21-11.5 109 109 0 0 1 17-8.7 43 43 0 0 1 10.6-2c1 0 3.2 0 5 .2a25 25 0 0 1 9.6 2.8c.9.5 3 1.7 4.4 2.9.7.5 1.7 1.8 1.7 1.8zm15.8-6.8 2.4-2.7.8-1-.4 1.6a25 25 0 0 1-4.3 8.4 49 49 0 0 1-8.8 8.6 58 58 0 0 1-36.2 10.8c-5.7.1-8 0-7.8-.2.1-.2 1.8-1.4 3.6-2.7l7.4-4.8a43 43 0 0 1 12.4-5.3c1.6-.3 4-.6 5.3-.6 1 0 3.6.1 8.5-.8 1-.2 3.6-1.2 6-2.2a48 48 0 0 0 11.1-9.1m-54.8 40.6-4.9-.5a97 97 0 0 1-14.8-3l-2.4-.8 3.6-1.2c2-.7 5.5-2.2 7.9-3.4l4.4-2.2 3.5.5q3.5.6 11.3.6a59 59 0 0 0 30.7-7 66 66 0 0 0 11.8-8 42 42 0 0 0 6-6.1 64 64 0 0 1-4.9 8.6 56 56 0 0 1-31.9 20.5l-6.8 1.3a81 81 0 0 1-13.5.7m-52.7-18.8a50 50 0 0 1-11-3l-5-2a76 76 0 0 0-14.3-3.4 81 81 0 0 0-26.8 1.9 79 79 0 0 0-14.6 5.5q-.2 0 .6-.9a76.8 76.8 0 0 1 14.8-9.8 71 71 0 0 1 12.2-4.1A70 70 0 0 1 116 176a94 94 0 0 1 15 2.3 100 100 0 0 1 21.5 8.7l9.6 5-3.8.7a66 66 0 0 1-13.5.6m20.7-4.9c-1.1-1-2.7-2.7-3.6-3.9a34 34 0 0 1-4.8-10 25.3 25.3 0 0 1 7.6-25.8q1.4-1 1.7-1.1c.2 0-.2 1-.8 2.2s-1.4 3.3-1.8 4.6a34 34 0 0 0-1.2 9.7 46 46 0 0 0 2 8.8c.5 1.2 1.5 3.2 2.3 4.4a32 32 0 0 0 8.3 8l2 1-4 1.8-4.8 2c-.7.2-1.2-.1-2.9-1.7m14.8-5.6-2.7-1.3-2.8-2.2a22 22 0 0 1-7.3-13.6 16 16 0 0 1-.2-6 28.6 28.6 0 0 1 3.1-9.5c.7-1 2.3-2.9 3.6-4.2a18 18 0 0 1 5-3.7A19.1 19.1 0 0 1 190 140c1.8 0 4 .4 5.2.9s3 1.2 4 1.9 2.5 1.8 3.3 2.7l1.5 1.5-.3-2c-.1-1-.5-2.8-.8-3.8a20 20 0 0 0-8.3-9.9 35 35 0 0 0-8.5-3.3 39 39 0 0 0-20.4 2 75 75 0 0 0-19.3 10.8c-3 2.2-7.9 5.5-10.7 7.4a151 151 0 0 1-14.7 8.5 82 82 0 0 1-19.8 5.8q-.3-.1 2-1a91 91 0 0 0 27.5-16.5l13.3-10.9a123 123 0 0 1 12.1-8.4 64 64 0 0 1 13.1-5.4c2.7-.6 5-1 7.7-1.2 3.7 0 2.4 0 5.9.2a42 42 0 0 1 12.7 3.2 35 35 0 0 1 7.5 4.9 28 28 0 0 1 6 7.9c.6 1.5 1.3 3.6 1.6 5 .2 1.3.3 4 .2 5.9q0 3.6-.9 5.7a28 28 0 0 1-4.3 7.5l-.6.6-.4-2-1-3.3a11 11 0 0 0-2.2-3c-.8-.7-2.3-1.7-3.3-2.2s-2.7-1-4-1.2c-1.6-.3-2.8-.3-4.5 0-1.2.1-3.2.8-4.3 1.3q-2.2 1.1-4.2 3a19 19 0 0 0-2.9 4c-.5 1-1 2.6-1.3 3.5a22 22 0 0 0 0 8.2 20.4 20.4 0 0 0 4.6 7.8 19 19 0 0 0 3.8 3l2 1.2q0 .3-.4.3l-2.4 1.5-2.2 1.4zm-28.9-1.7a146 146 0 0 0-19.9-7.7l-3.3-.5q-1.4-.1-1.4-.3l1.3-.4 4-1.6a87 87 0 0 0 10.3-5.2c2-1.2 5.1-3.4 7.2-5 2-1.5 3.7-2.8 3.9-2.8q.2 0-.3 1l-1 3-.6 4.7a31 31 0 0 0 1.3 11.2l1.4 4 .8 1.8zM96 171.8l-3.3-.5a89 89 0 0 1-16-4.1c.1-.1 1.9 0 4 .3 2.9.5 5.6.5 11.6.4a63 63 0 0 0 19.9-2.8 91 91 0 0 0 12.9-5 111 111 0 0 0 14.5-8.7l6.5-4.6a154 154 0 0 1 13-8.5 71 71 0 0 1 13-5.2 50 50 0 0 1 13.2-.3c1.4.3 3.9 1.1 5.4 1.9s3 1.8 3 2l-2.2-.7a25 25 0 0 0-13.2 1.4c-1 .4-2.2 1-5 2.8l-3.3 1a46 46 0 0 0-12.5 7.3l-5.1 3.8-10.8 7.8a103 103 0 0 1-16.6 8 97 97 0 0 1-16 3.4 90 90 0 0 1-13 .3" style="fill:#1560bd;fill-opacity:1;stroke-width:1.04288"/>
    <circle cx="165" cy="169" r="104.2" style="fill:none;fill-opacity:1;stroke:#1560bd;stroke-width:11.6067;stroke-dasharray:none;stroke-opacity:1"/>
  </g>
</svg>
