<svg xmlns="http://www.w3.org/2000/svg" width="150.5" height="146.3">
  <path d="m163.5 216.2-2.9-8.5a556 556 0 0 1-7.5-21.8l3 2.5c9.1 7.4 7.5 7.1 7.5 6.4v-10.5h-2.1a40 40 0 0 1-16.8-4.8c0-.2 6.4-5 7.3-5.6l2.8.6c5.5 1.5 12.7.9 18.3-1.7 3.9-1.8 10.6-7 10.6-8.1 0-.2-2.4-1.7-5.3-3.3s-5.3-3-5.3-3l1.7-1.4q1.7-1.3 3.9-4.9l2.5-3.8s1.7.7 3.6 1.9l15.1 8.7c1.3.6 1.3.8-.6 4.3a41 41 0 0 1-21 18.6l-2.5 1-3 8.5-8.3 23.7c-.4 1.5-1 2.2-1 1.2m-14.2-19.9c-5-1.4-11.1-4.2-15-6.8l-1.9-1.3 6.2-4.5 1 .6c1.8 1 6.4 3.3 8 3.8l1.6.6 1 2.5c.3 1.2 1.4 4 1.7 4.9.4 1.2.6 1.2-2.6.2m27.4-3c1.6-4.7 1.6-4.6 3.2-5.1a48 48 0 0 0 28-28.2c.3-.3 3.5-1.6 8.2-3 .5-.2.5 0-.1 2a53 53 0 0 1-8.5 17.2l-1.7 2.7c0 .4 4 11.7 4.5 12.5.5 1 .4 1-6.5-1.8l-6.6-2.6-1.6 1c-5.6 4.1-12.6 7.3-19.3 9l-1 .1zm-59.7 1.2c12.2-19.3 25-38.2 37.5-57.3 0 0 45.9-35.1 55.9-42.2-7 10.2-20.7 33-36.3 55.5zm2.9-18.7c-2.3-3-6.2-10.4-7.2-13.7-1.6-4.9-1.7-5.4-1-5.1l4 1.3c4 1.3 4 1.3 4.8 3.5.7 2 3 6.4 4.6 8.8l1.2 1.7-1.9 3c-1 1.5-2 3-2.2 3-.1.2-1.2-1-2.3-2.5m9-11-2.2-4.8-1.4-3.1-6-2c-25-7.8-32.4-10.3-30.5-10.3.5 0 10-3 24.8-7.6 4.4-1.5 8.1-2.6 8.2-2.5l-4.6 5.2-4.8 5.1h8.9l8.8.2.4 3a27 27 0 0 0 2.6 9.6l1.2 2.7-2 3c-2.4 3.6-2.1 3.5-3.3 1.4m77.2-9.5c.8-1 5.1-6 7-8l2-2h-17.9l-.2-3q-.3-5.5-2.7-10.5l-1-2.5 2-3c1.8-3 2-3.1 2.4-2.6.7 1 2.8 5.2 3.6 7.4l.8 2 5.9 2 30.6 9.6c.9.3.6.4-3.6 1.7l-28.8 9.3q-.8.4-.1-.4m-70.2-18.1c-8.4-4.8-9.5-5.5-9.3-6.1 2.6-9 12.5-19.4 22.4-23.4 1.2-.5 2.4-1 2.6-1.3.2-.2 11.6-35.4 11.8-36 .2.7 6.9 18.6 7.7 21.4l3.6 11.4s-1.8-1.3-3.8-3.1l-5.2-4.5-1.5-1.3v10.9h2.3a39 39 0 0 1 15.6 4.5l1 .6-3.9 2.9-3.8 3-2.5-1a28 28 0 0 0-24.3 5c-2.2 1.7-5.4 5.3-5.2 6a47 47 0 0 0 5.3 3.2c6 3.3 5.6 3 3.8 4.2a22 22 0 0 0-4 5c-1.4 2.2-2.7 4-2.8 4zm-24.9-4c0-4.2 5.8-16.6 10.4-22.3l.8-1-2.7-6.7-2.6-6.8 6.6 2.6c7.7 3.3 6.5 3.1 9.3 1a55 55 0 0 1 19.4-8.7s-.5 2-1.3 4.2l-1.3 4.1-3 1.3a48 48 0 0 0-27.5 29.8c-.5.3-8 2.7-8 2.5m101.3-1.1-3.9-1.3-.7-2.2c-.8-2.4-3.3-7.4-5-10-1.4-2-1.4-1.6.6-4.9l2-3.1c.5-1.5 6.2 7.3 8.6 13.4 1 2.5 2.7 8.4 2.7 9.2 0 .3 0 .3-4.3-1.1m-23.7-27.3c-1.3-1-4.8-2.9-7.6-4l-2.9-1.2-1.4-4c-.7-2.3-1.3-4.2-1.2-4.3a50 50 0 0 1 20 9.2c0 .2-5.8 4.8-6 4.8z" style="fill:#ffb000;fill-opacity:1" transform="translate(-88.5 -70.4)"/>
</svg>
